<?xml version="1.0" encoding="UTF-8"?>
<svg xmlns="http://www.w3.org/2000/svg" width="1600" height="600" viewBox="0 0 1600 600">
<defs><linearGradient id="g" x1="0" y1="0" x2="1" y2="1"><stop offset="0" stop-color="#BFD8B0"/><stop offset="1" stop-color="#366C4E"/></linearGradient><linearGradient id="gold" x1="0" y1="0" x2="1" y2="1"><stop offset="0" stop-color="#FFF1A0"/><stop offset="0.55" stop-color="#D4AF37"/><stop offset="1" stop-color="#9A6B00"/></linearGradient></defs>
<rect x="80" y="80" width="420" height="420" rx="96" fill="url(#g)"/>
<path d="M175 350 C200 445 270 480 290 482 C370 480 430 445 455 350" fill="none" stroke="url(#gold)" stroke-width="30" stroke-linecap="round"/>
<path d="M180 320 C150 260 190 195 250 165" fill="none" stroke="url(#gold)" stroke-width="24" stroke-linecap="round"/>
<path d="M450 320 C480 260 440 195 380 165" fill="none" stroke="url(#gold)" stroke-width="24" stroke-linecap="round"/>
<circle cx="190" cy="250" r="24" fill="url(#gold)"/><circle cx="440" cy="250" r="24" fill="url(#gold)"/><circle cx="250" cy="440" r="22" fill="url(#gold)"/><circle cx="380" cy="440" r="22" fill="url(#gold)"/><circle cx="315" cy="140" r="28" fill="url(#gold)"/>
<path d="M190 190 C245 170 280 130 315 160 C350 130 385 170 440 190 L415 220 C375 208 345 208 315 230 C285 208 255 208 215 220 Z" fill="url(#gold)"/>
<path d="M225 260 C270 245 300 260 315 290 L315 405 C280 382 255 378 225 385 Z" fill="#FFF8E6" stroke="#D4AF37" stroke-width="5"/>
<path d="M405 260 C360 245 330 260 315 290 L315 405 C350 382 375 378 405 385 Z" fill="#FFF8E6" stroke="#D4AF37" stroke-width="5"/>
<path d="M315 290 L315 415" stroke="#B88911" stroke-width="6"/>
<path d="M455 150 L474 195 L520 215 L474 235 L455 280 L436 235 L390 215 L436 195 Z" fill="url(#gold)"/>
<text x="580" y="315" font-family="Georgia, Noto Serif, serif" font-size="142" fill="#0F3B2E">ScriptureSpace</text>
<text x="590" y="405" font-family="Georgia, Noto Serif, serif" font-size="44" fill="#0F3B2E">Scripture  •  Community  •  Growth</text>
</svg>